<mxfile host="Electron" modified="2024-06-16T16:32:19.327Z" agent="Mozilla/5.0 (X11; Linux x86_64) AppleWebKit/537.36 (KHTML, like Gecko) draw.io/24.5.3 Chrome/124.0.6367.233 Electron/30.0.9 Safari/537.36" etag="zmahtB3ScVnaw8yY15sZ" version="24.5.3" type="device">
  <diagram name="PÃ¡gina-1" id="1oK6IXpEQPkTwQP_Tywj">
    <mxGraphModel dx="2261" dy="832" grid="1" gridSize="10" guides="1" tooltips="1" connect="1" arrows="1" fold="1" page="1" pageScale="1" pageWidth="827" pageHeight="1169" math="0" shadow="0">
      <root>
        <mxCell id="0" />
        <mxCell id="1" parent="0" />
        <mxCell id="MQBegtAZe7lp4aGN-AtD-7" value="datalake" style="swimlane;startSize=20;horizontal=1;childLayout=treeLayout;horizontalTree=0;sortEdges=1;resizable=0;containerType=tree;fontSize=12;" vertex="1" parent="1">
          <mxGeometry x="-201" y="40" width="1541" height="460" as="geometry" />
        </mxCell>
        <mxCell id="MQBegtAZe7lp4aGN-AtD-8" value="bronze" style="whiteSpace=wrap;html=1;" vertex="1" parent="MQBegtAZe7lp4aGN-AtD-7">
          <mxGeometry x="720.4630000000001" y="40" width="100" height="40" as="geometry" />
        </mxCell>
        <mxCell id="MQBegtAZe7lp4aGN-AtD-9" value="assunto" style="whiteSpace=wrap;html=1;" vertex="1" parent="MQBegtAZe7lp4aGN-AtD-7">
          <mxGeometry x="720.4630000000001" y="130" width="100" height="40" as="geometry" />
        </mxCell>
        <mxCell id="MQBegtAZe7lp4aGN-AtD-10" value="" style="edgeStyle=elbowEdgeStyle;elbow=vertical;html=1;rounded=1;curved=0;sourcePerimeterSpacing=0;targetPerimeterSpacing=0;startSize=6;endSize=6;" edge="1" parent="MQBegtAZe7lp4aGN-AtD-7" source="MQBegtAZe7lp4aGN-AtD-8" target="MQBegtAZe7lp4aGN-AtD-9">
          <mxGeometry relative="1" as="geometry" />
        </mxCell>
        <mxCell id="MQBegtAZe7lp4aGN-AtD-13" value="" style="edgeStyle=elbowEdgeStyle;elbow=vertical;html=1;rounded=1;curved=0;sourcePerimeterSpacing=0;targetPerimeterSpacing=0;startSize=6;endSize=6;" edge="1" target="MQBegtAZe7lp4aGN-AtD-14" source="MQBegtAZe7lp4aGN-AtD-9" parent="MQBegtAZe7lp4aGN-AtD-7">
          <mxGeometry relative="1" as="geometry">
            <mxPoint x="-5080.791200000001" y="140" as="sourcePoint" />
          </mxGeometry>
        </mxCell>
        <mxCell id="MQBegtAZe7lp4aGN-AtD-14" value="arq: ids_canais_brasileiros.pkl" style="whiteSpace=wrap;html=1;" vertex="1" parent="MQBegtAZe7lp4aGN-AtD-7">
          <mxGeometry x="20" y="220" width="170" height="40" as="geometry" />
        </mxCell>
        <mxCell id="MQBegtAZe7lp4aGN-AtD-17" value="" style="edgeStyle=elbowEdgeStyle;elbow=vertical;html=1;rounded=1;curved=0;sourcePerimeterSpacing=0;targetPerimeterSpacing=0;startSize=6;endSize=6;" edge="1" target="MQBegtAZe7lp4aGN-AtD-18" source="MQBegtAZe7lp4aGN-AtD-9" parent="MQBegtAZe7lp4aGN-AtD-7">
          <mxGeometry relative="1" as="geometry">
            <mxPoint x="-5010.791200000001" y="230" as="sourcePoint" />
          </mxGeometry>
        </mxCell>
        <mxCell id="MQBegtAZe7lp4aGN-AtD-18" value="extracao_data" style="whiteSpace=wrap;html=1;" vertex="1" parent="MQBegtAZe7lp4aGN-AtD-7">
          <mxGeometry x="634.2080000000001" y="220" width="100" height="40" as="geometry" />
        </mxCell>
        <mxCell id="MQBegtAZe7lp4aGN-AtD-21" value="" style="edgeStyle=elbowEdgeStyle;elbow=vertical;html=1;rounded=1;curved=0;sourcePerimeterSpacing=0;targetPerimeterSpacing=0;startSize=6;endSize=6;" edge="1" target="MQBegtAZe7lp4aGN-AtD-22" source="MQBegtAZe7lp4aGN-AtD-18" parent="MQBegtAZe7lp4aGN-AtD-7">
          <mxGeometry relative="1" as="geometry">
            <mxPoint x="-4822.7912" y="230" as="sourcePoint" />
          </mxGeometry>
        </mxCell>
        <mxCell id="MQBegtAZe7lp4aGN-AtD-22" value="estatisticas_canais_brasileiros" style="whiteSpace=wrap;html=1;" vertex="1" parent="MQBegtAZe7lp4aGN-AtD-7">
          <mxGeometry x="128.9480000000001" y="310" width="220" height="40" as="geometry" />
        </mxCell>
        <mxCell id="MQBegtAZe7lp4aGN-AtD-25" value="" style="edgeStyle=elbowEdgeStyle;elbow=vertical;html=1;rounded=1;curved=0;sourcePerimeterSpacing=0;targetPerimeterSpacing=0;startSize=6;endSize=6;" edge="1" target="MQBegtAZe7lp4aGN-AtD-26" source="MQBegtAZe7lp4aGN-AtD-18" parent="MQBegtAZe7lp4aGN-AtD-7">
          <mxGeometry relative="1" as="geometry">
            <mxPoint x="-4384.9912" y="240" as="sourcePoint" />
          </mxGeometry>
        </mxCell>
        <mxCell id="MQBegtAZe7lp4aGN-AtD-26" value="estatisticas_videos" style="whiteSpace=wrap;html=1;" vertex="1" parent="MQBegtAZe7lp4aGN-AtD-7">
          <mxGeometry x="403.5780000000001" y="310" width="126" height="40" as="geometry" />
        </mxCell>
        <mxCell id="MQBegtAZe7lp4aGN-AtD-29" value="" style="edgeStyle=elbowEdgeStyle;elbow=vertical;html=1;rounded=1;curved=0;sourcePerimeterSpacing=0;targetPerimeterSpacing=0;startSize=6;endSize=6;" edge="1" target="MQBegtAZe7lp4aGN-AtD-30" source="MQBegtAZe7lp4aGN-AtD-9" parent="MQBegtAZe7lp4aGN-AtD-7">
          <mxGeometry relative="1" as="geometry">
            <mxPoint x="-3938.7911999999997" y="240" as="sourcePoint" />
          </mxGeometry>
        </mxCell>
        <mxCell id="MQBegtAZe7lp4aGN-AtD-30" value="id_videos.pkl" style="whiteSpace=wrap;html=1;" vertex="1" parent="MQBegtAZe7lp4aGN-AtD-7">
          <mxGeometry x="1178.4160000000002" y="220" width="100" height="40" as="geometry" />
        </mxCell>
        <mxCell id="MQBegtAZe7lp4aGN-AtD-31" value="" style="edgeStyle=elbowEdgeStyle;elbow=vertical;html=1;rounded=1;curved=0;sourcePerimeterSpacing=0;targetPerimeterSpacing=0;startSize=6;endSize=6;" edge="1" target="MQBegtAZe7lp4aGN-AtD-32" source="MQBegtAZe7lp4aGN-AtD-18" parent="MQBegtAZe7lp4aGN-AtD-7">
          <mxGeometry relative="1" as="geometry">
            <mxPoint x="-3649.5912" y="240" as="sourcePoint" />
          </mxGeometry>
        </mxCell>
        <mxCell id="MQBegtAZe7lp4aGN-AtD-32" value="historico_pesquisa" style="whiteSpace=wrap;html=1;" vertex="1" parent="MQBegtAZe7lp4aGN-AtD-7">
          <mxGeometry x="584.2080000000001" y="310" width="126.6" height="40" as="geometry" />
        </mxCell>
        <mxCell id="MQBegtAZe7lp4aGN-AtD-33" value="" style="edgeStyle=elbowEdgeStyle;elbow=vertical;html=1;rounded=1;curved=0;sourcePerimeterSpacing=0;targetPerimeterSpacing=0;startSize=6;endSize=6;" edge="1" target="MQBegtAZe7lp4aGN-AtD-34" source="MQBegtAZe7lp4aGN-AtD-32" parent="MQBegtAZe7lp4aGN-AtD-7">
          <mxGeometry relative="1" as="geometry">
            <mxPoint x="-3268.9511999999995" y="330" as="sourcePoint" />
          </mxGeometry>
        </mxCell>
        <mxCell id="MQBegtAZe7lp4aGN-AtD-34" value="arq:req_historico.json" style="whiteSpace=wrap;html=1;" vertex="1" parent="MQBegtAZe7lp4aGN-AtD-7">
          <mxGeometry x="584.2080000000001" y="400" width="126.6" height="40" as="geometry" />
        </mxCell>
        <mxCell id="MQBegtAZe7lp4aGN-AtD-35" value="" style="edgeStyle=elbowEdgeStyle;elbow=vertical;html=1;rounded=1;curved=0;sourcePerimeterSpacing=0;targetPerimeterSpacing=0;startSize=6;endSize=6;" edge="1" target="MQBegtAZe7lp4aGN-AtD-36" source="MQBegtAZe7lp4aGN-AtD-26" parent="MQBegtAZe7lp4aGN-AtD-7">
          <mxGeometry relative="1" as="geometry">
            <mxPoint x="-3268.8311999999996" y="330" as="sourcePoint" />
          </mxGeometry>
        </mxCell>
        <mxCell id="MQBegtAZe7lp4aGN-AtD-36" value="arq:estatisticas_videos.json" style="whiteSpace=wrap;html=1;" vertex="1" parent="MQBegtAZe7lp4aGN-AtD-7">
          <mxGeometry x="388.9480000000001" y="400" width="155.26" height="40" as="geometry" />
        </mxCell>
        <mxCell id="MQBegtAZe7lp4aGN-AtD-37" value="" style="edgeStyle=elbowEdgeStyle;elbow=vertical;html=1;rounded=1;curved=0;sourcePerimeterSpacing=0;targetPerimeterSpacing=0;startSize=6;endSize=6;" edge="1" target="MQBegtAZe7lp4aGN-AtD-38" source="MQBegtAZe7lp4aGN-AtD-22" parent="MQBegtAZe7lp4aGN-AtD-7">
          <mxGeometry relative="1" as="geometry">
            <mxPoint x="-3268.3647999999994" y="330" as="sourcePoint" />
          </mxGeometry>
        </mxCell>
        <mxCell id="MQBegtAZe7lp4aGN-AtD-38" value="arq:estatisticas_canais_brasileiros.json" style="whiteSpace=wrap;html=1;" vertex="1" parent="MQBegtAZe7lp4aGN-AtD-7">
          <mxGeometry x="128.9480000000001" y="400" width="220" height="40" as="geometry" />
        </mxCell>
        <mxCell id="MQBegtAZe7lp4aGN-AtD-39" value="" style="edgeStyle=elbowEdgeStyle;elbow=vertical;html=1;rounded=1;curved=0;sourcePerimeterSpacing=0;targetPerimeterSpacing=0;startSize=6;endSize=6;" edge="1" target="MQBegtAZe7lp4aGN-AtD-40" source="MQBegtAZe7lp4aGN-AtD-18" parent="MQBegtAZe7lp4aGN-AtD-7">
          <mxGeometry relative="1" as="geometry">
            <mxPoint x="-3303.5352000000003" y="240" as="sourcePoint" />
          </mxGeometry>
        </mxCell>
        <mxCell id="MQBegtAZe7lp4aGN-AtD-40" value="comentarios" style="whiteSpace=wrap;html=1;" vertex="1" parent="MQBegtAZe7lp4aGN-AtD-7">
          <mxGeometry x="750.8080000000001" y="310" width="100" height="40" as="geometry" />
        </mxCell>
        <mxCell id="MQBegtAZe7lp4aGN-AtD-41" value="" style="edgeStyle=elbowEdgeStyle;elbow=vertical;html=1;rounded=1;curved=0;sourcePerimeterSpacing=0;targetPerimeterSpacing=0;startSize=6;endSize=6;" edge="1" target="MQBegtAZe7lp4aGN-AtD-42" source="MQBegtAZe7lp4aGN-AtD-40" parent="MQBegtAZe7lp4aGN-AtD-7">
          <mxGeometry relative="1" as="geometry">
            <mxPoint x="-2844.7911999999997" y="330" as="sourcePoint" />
          </mxGeometry>
        </mxCell>
        <mxCell id="MQBegtAZe7lp4aGN-AtD-42" value="comentarios.json" style="whiteSpace=wrap;html=1;" vertex="1" parent="MQBegtAZe7lp4aGN-AtD-7">
          <mxGeometry x="750.8080000000001" y="400" width="100" height="40" as="geometry" />
        </mxCell>
        <mxCell id="MQBegtAZe7lp4aGN-AtD-43" value="" style="edgeStyle=elbowEdgeStyle;elbow=vertical;html=1;rounded=1;curved=0;sourcePerimeterSpacing=0;targetPerimeterSpacing=0;startSize=6;endSize=6;" edge="1" target="MQBegtAZe7lp4aGN-AtD-44" source="MQBegtAZe7lp4aGN-AtD-9" parent="MQBegtAZe7lp4aGN-AtD-7">
          <mxGeometry relative="1" as="geometry">
            <mxPoint x="-2879.7911999999997" y="240" as="sourcePoint" />
          </mxGeometry>
        </mxCell>
        <mxCell id="MQBegtAZe7lp4aGN-AtD-44" value="id_resposta_comentarios.json" style="whiteSpace=wrap;html=1;" vertex="1" parent="MQBegtAZe7lp4aGN-AtD-7">
          <mxGeometry x="1318.4160000000002" y="220" width="202.51" height="40" as="geometry" />
        </mxCell>
        <mxCell id="MQBegtAZe7lp4aGN-AtD-45" value="" style="edgeStyle=elbowEdgeStyle;elbow=vertical;html=1;rounded=1;curved=0;sourcePerimeterSpacing=0;targetPerimeterSpacing=0;startSize=6;endSize=6;" edge="1" target="MQBegtAZe7lp4aGN-AtD-46" source="MQBegtAZe7lp4aGN-AtD-18" parent="MQBegtAZe7lp4aGN-AtD-7">
          <mxGeometry relative="1" as="geometry">
            <mxPoint x="-2147.9251999999997" y="300" as="sourcePoint" />
          </mxGeometry>
        </mxCell>
        <mxCell id="MQBegtAZe7lp4aGN-AtD-46" value="resposta_comentarios" style="whiteSpace=wrap;html=1;" vertex="1" parent="MQBegtAZe7lp4aGN-AtD-7">
          <mxGeometry x="890.8080000000001" y="310" width="154.33" height="40" as="geometry" />
        </mxCell>
        <mxCell id="MQBegtAZe7lp4aGN-AtD-47" value="" style="edgeStyle=elbowEdgeStyle;elbow=vertical;html=1;rounded=1;curved=0;sourcePerimeterSpacing=0;targetPerimeterSpacing=0;startSize=6;endSize=6;" edge="1" target="MQBegtAZe7lp4aGN-AtD-48" source="MQBegtAZe7lp4aGN-AtD-46" parent="MQBegtAZe7lp4aGN-AtD-7">
          <mxGeometry relative="1" as="geometry">
            <mxPoint x="-909.9271999999999" y="300" as="sourcePoint" />
          </mxGeometry>
        </mxCell>
        <mxCell id="MQBegtAZe7lp4aGN-AtD-48" value="resposta_comentarios.json" style="whiteSpace=wrap;html=1;" vertex="1" parent="MQBegtAZe7lp4aGN-AtD-7">
          <mxGeometry x="890.8080000000001" y="400" width="154.33" height="40" as="geometry" />
        </mxCell>
        <mxCell id="MQBegtAZe7lp4aGN-AtD-51" value="" style="edgeStyle=elbowEdgeStyle;elbow=vertical;html=1;rounded=1;curved=0;sourcePerimeterSpacing=0;targetPerimeterSpacing=0;startSize=6;endSize=6;" edge="1" target="MQBegtAZe7lp4aGN-AtD-52" source="MQBegtAZe7lp4aGN-AtD-18" parent="MQBegtAZe7lp4aGN-AtD-7">
          <mxGeometry relative="1" as="geometry">
            <mxPoint x="-217.73099999999988" y="300" as="sourcePoint" />
          </mxGeometry>
        </mxCell>
        <mxCell id="MQBegtAZe7lp4aGN-AtD-52" value="trends" style="whiteSpace=wrap;html=1;" vertex="1" parent="MQBegtAZe7lp4aGN-AtD-7">
          <mxGeometry x="1085.1380000000001" y="310" width="154.33" height="40" as="geometry" />
        </mxCell>
        <mxCell id="MQBegtAZe7lp4aGN-AtD-53" value="" style="edgeStyle=elbowEdgeStyle;elbow=vertical;html=1;rounded=1;curved=0;sourcePerimeterSpacing=0;targetPerimeterSpacing=0;startSize=6;endSize=6;" edge="1" target="MQBegtAZe7lp4aGN-AtD-54" source="MQBegtAZe7lp4aGN-AtD-52" parent="MQBegtAZe7lp4aGN-AtD-7">
          <mxGeometry relative="1" as="geometry">
            <mxPoint x="483" y="300" as="sourcePoint" />
          </mxGeometry>
        </mxCell>
        <mxCell id="MQBegtAZe7lp4aGN-AtD-54" value="trends.json" style="whiteSpace=wrap;html=1;" vertex="1" parent="MQBegtAZe7lp4aGN-AtD-7">
          <mxGeometry x="1085.1380000000001" y="400" width="154.33" height="40" as="geometry" />
        </mxCell>
        <mxCell id="MQBegtAZe7lp4aGN-AtD-55" value="datalake_prata" style="swimlane;startSize=20;horizontal=1;childLayout=treeLayout;horizontalTree=0;sortEdges=1;resizable=0;containerType=tree;fontSize=12;" vertex="1" parent="1">
          <mxGeometry x="140" y="530" width="750" height="280" as="geometry" />
        </mxCell>
        <mxCell id="MQBegtAZe7lp4aGN-AtD-56" value="prata" style="whiteSpace=wrap;html=1;" vertex="1" parent="MQBegtAZe7lp4aGN-AtD-55">
          <mxGeometry x="309.5" y="40" width="100" height="40" as="geometry" />
        </mxCell>
        <mxCell id="MQBegtAZe7lp4aGN-AtD-57" value="estatisticas_canais_brasileiros" style="whiteSpace=wrap;html=1;" vertex="1" parent="MQBegtAZe7lp4aGN-AtD-55">
          <mxGeometry x="20" y="130" width="100" height="40" as="geometry" />
        </mxCell>
        <mxCell id="MQBegtAZe7lp4aGN-AtD-58" value="" style="edgeStyle=elbowEdgeStyle;elbow=vertical;html=1;rounded=1;curved=0;sourcePerimeterSpacing=0;targetPerimeterSpacing=0;startSize=6;endSize=6;" edge="1" parent="MQBegtAZe7lp4aGN-AtD-55" source="MQBegtAZe7lp4aGN-AtD-56" target="MQBegtAZe7lp4aGN-AtD-57">
          <mxGeometry relative="1" as="geometry" />
        </mxCell>
        <mxCell id="MQBegtAZe7lp4aGN-AtD-61" value="" style="edgeStyle=elbowEdgeStyle;elbow=vertical;html=1;rounded=1;curved=0;sourcePerimeterSpacing=0;targetPerimeterSpacing=0;startSize=6;endSize=6;" edge="1" target="MQBegtAZe7lp4aGN-AtD-62" source="MQBegtAZe7lp4aGN-AtD-57" parent="MQBegtAZe7lp4aGN-AtD-55">
          <mxGeometry relative="1" as="geometry">
            <mxPoint x="-1584" y="610" as="sourcePoint" />
          </mxGeometry>
        </mxCell>
        <mxCell id="MQBegtAZe7lp4aGN-AtD-62" value="" style="whiteSpace=wrap;html=1;" vertex="1" parent="MQBegtAZe7lp4aGN-AtD-55">
          <mxGeometry x="20" y="220" width="100" height="40" as="geometry" />
        </mxCell>
        <mxCell id="MQBegtAZe7lp4aGN-AtD-63" value="" style="edgeStyle=elbowEdgeStyle;elbow=vertical;html=1;rounded=1;curved=0;sourcePerimeterSpacing=0;targetPerimeterSpacing=0;startSize=6;endSize=6;" edge="1" target="MQBegtAZe7lp4aGN-AtD-64" source="MQBegtAZe7lp4aGN-AtD-56" parent="MQBegtAZe7lp4aGN-AtD-55">
          <mxGeometry relative="1" as="geometry">
            <mxPoint x="-1584" y="610" as="sourcePoint" />
          </mxGeometry>
        </mxCell>
        <mxCell id="MQBegtAZe7lp4aGN-AtD-64" value="estatisticas_videos" style="whiteSpace=wrap;html=1;" vertex="1" parent="MQBegtAZe7lp4aGN-AtD-55">
          <mxGeometry x="191.5" y="130" width="100" height="40" as="geometry" />
        </mxCell>
        <mxCell id="MQBegtAZe7lp4aGN-AtD-68" value="" style="edgeStyle=elbowEdgeStyle;elbow=vertical;html=1;rounded=1;curved=0;sourcePerimeterSpacing=0;targetPerimeterSpacing=0;startSize=6;endSize=6;" edge="1" target="MQBegtAZe7lp4aGN-AtD-69" source="MQBegtAZe7lp4aGN-AtD-56" parent="MQBegtAZe7lp4aGN-AtD-55">
          <mxGeometry relative="1" as="geometry">
            <mxPoint x="-807" y="610" as="sourcePoint" />
          </mxGeometry>
        </mxCell>
        <mxCell id="MQBegtAZe7lp4aGN-AtD-69" value="comentarios" style="whiteSpace=wrap;html=1;" vertex="1" parent="MQBegtAZe7lp4aGN-AtD-55">
          <mxGeometry x="332" y="130" width="100" height="40" as="geometry" />
        </mxCell>
        <mxCell id="MQBegtAZe7lp4aGN-AtD-70" value="" style="edgeStyle=elbowEdgeStyle;elbow=vertical;html=1;rounded=1;curved=0;sourcePerimeterSpacing=0;targetPerimeterSpacing=0;startSize=6;endSize=6;" edge="1" target="MQBegtAZe7lp4aGN-AtD-71" source="MQBegtAZe7lp4aGN-AtD-56" parent="MQBegtAZe7lp4aGN-AtD-55">
          <mxGeometry relative="1" as="geometry">
            <mxPoint x="-464" y="610" as="sourcePoint" />
          </mxGeometry>
        </mxCell>
        <mxCell id="MQBegtAZe7lp4aGN-AtD-71" value="resposta_comentarios" style="whiteSpace=wrap;html=1;" vertex="1" parent="MQBegtAZe7lp4aGN-AtD-55">
          <mxGeometry x="481" y="130" width="100" height="40" as="geometry" />
        </mxCell>
        <mxCell id="MQBegtAZe7lp4aGN-AtD-72" value="" style="edgeStyle=elbowEdgeStyle;elbow=vertical;html=1;rounded=1;curved=0;sourcePerimeterSpacing=0;targetPerimeterSpacing=0;startSize=6;endSize=6;" edge="1" target="MQBegtAZe7lp4aGN-AtD-73" source="MQBegtAZe7lp4aGN-AtD-56" parent="MQBegtAZe7lp4aGN-AtD-55">
          <mxGeometry relative="1" as="geometry">
            <mxPoint x="19.5" y="610" as="sourcePoint" />
          </mxGeometry>
        </mxCell>
        <mxCell id="MQBegtAZe7lp4aGN-AtD-73" value="trends" style="whiteSpace=wrap;html=1;" vertex="1" parent="MQBegtAZe7lp4aGN-AtD-55">
          <mxGeometry x="630" y="130" width="100" height="40" as="geometry" />
        </mxCell>
      </root>
    </mxGraphModel>
  </diagram>
</mxfile>
